<svg width="24" height="24" viewBox="0 0 24 24" fill="none" xmlns="http://www.w3.org/2000/svg">
<path d="M18.4943 4.08002H5.50556C3.62457 4.08002 2.09998 5.60462 2.09998 7.48562V15.5442C2.09998 17.4252 3.62457 18.9498 5.50556 18.9498H10.0991L11.6633 21.6525C11.8019 21.9 12.1682 21.9 12.3068 21.6525L13.871 18.9498H18.4943C20.3753 18.9498 21.8999 17.4252 21.8999 15.5442V7.48562C21.8999 5.60462 20.3753 4.08002 18.4943 4.08002Z" fill="#00C73C"/>
<path fill-rule="evenodd" clip-rule="evenodd" d="M5.70353 13.3365C5.98073 13.6038 6.32723 13.7622 6.70343 13.7622C7.73303 13.7622 8.57452 12.9009 8.57452 11.8218C8.57452 10.7427 7.73303 9.8715 6.70343 9.8715C6.31733 9.8715 5.98073 10.0299 5.70353 10.2972V8.733H4.58484V13.6632H5.70353V13.3365ZM9.25762 13.6632H10.3862V10.416C10.3862 9.1587 9.40612 8.6637 8.65372 8.6142V9.6141C8.96062 9.624 9.25762 9.8814 9.25762 10.4259V13.6632ZM11.0198 11.8119C11.0198 12.891 11.891 13.7622 12.9701 13.7622C14.0492 13.7622 14.9204 12.891 14.9204 11.8119C14.9204 10.7328 14.0492 9.8616 12.9701 9.8616C11.891 9.8616 11.0198 10.7328 11.0198 11.8119ZM17.4647 15.2472C18.2567 15.2175 19.4051 14.8908 19.4051 13.386V9.9903H18.326V10.3269C18.0488 10.0497 17.6924 9.8814 17.2964 9.8814C16.2668 9.8814 15.4253 10.7229 15.4253 11.7525C15.4253 12.7821 16.2668 13.6236 17.2964 13.6236C17.6924 13.6236 18.0488 13.4553 18.326 13.1781V13.2474C18.3359 13.8711 18.1775 14.2176 17.4647 14.2572V15.2472ZM17.435 12.6633C17.9597 12.6633 18.3854 12.2475 18.3854 11.7426C18.3854 11.2377 17.9597 10.8219 17.435 10.8219C16.9103 10.8219 16.4846 11.2377 16.4846 11.7426C16.4846 12.2475 16.9103 12.6633 17.435 12.6633ZM6.57477 12.7821C7.10937 12.7821 7.53507 12.3465 7.53507 11.8218C7.53507 11.2872 7.10937 10.8615 6.57477 10.8615C6.04017 10.8615 5.61447 11.2872 5.61447 11.8218C5.61447 12.3564 6.04017 12.7821 6.57477 12.7821ZM12.9701 12.7425C13.475 12.7425 13.8908 12.3267 13.8908 11.8218C13.8908 11.3169 13.475 10.9011 12.9701 10.9011C12.4652 10.9011 12.0494 11.3169 12.0494 11.8218C12.0494 12.3267 12.4652 12.7425 12.9701 12.7425Z" fill="white"/>
</svg>
