<svg width="40" height="40" viewBox="0 0 40 40" fill="none" xmlns="http://www.w3.org/2000/svg">
<path fill-rule="evenodd" clip-rule="evenodd" d="M12.083 6.66666C12.083 6.33514 12.2147 6.01719 12.4491 5.78277C12.6835 5.54835 13.0015 5.41666 13.333 5.41666H26.6663C26.9979 5.41666 27.3158 5.54835 27.5502 5.78277C27.7846 6.01719 27.9163 6.33514 27.9163 6.66666C27.9163 6.99818 27.7846 7.31612 27.5502 7.55054C27.3158 7.78496 26.9979 7.91666 26.6663 7.91666H13.333C13.0015 7.91666 12.6835 7.78496 12.4491 7.55054C12.2147 7.31612 12.083 6.99818 12.083 6.66666Z" fill="white"/>
<path d="M15 6.25C15.3315 6.25 15.6495 6.3817 15.8839 6.61612C16.1183 6.85054 16.25 7.16848 16.25 7.5V17.1C16.2501 18.1943 15.8588 19.2525 15.1467 20.0833L12.0067 23.7467H27.9933L24.8533 20.0833C24.1412 19.2525 23.7499 18.1943 23.75 17.1V7.5C23.75 7.16848 23.8817 6.85054 24.1161 6.61612C24.3505 6.3817 24.6685 6.25 25 6.25C25.3315 6.25 25.6495 6.3817 25.8839 6.61612C26.1183 6.85054 26.25 7.16848 26.25 7.5V17.1C26.25 17.5983 26.4283 18.0783 26.75 18.4567L35.1467 28.25C35.8588 29.0808 36.2501 30.1391 36.25 31.2333V31.6667C36.25 32.8822 35.7671 34.048 34.9076 34.9076C34.048 35.7671 32.8822 36.25 31.6667 36.25H8.33333C7.11776 36.25 5.95197 35.7671 5.09243 34.9076C4.23289 34.048 3.75 32.8822 3.75 31.6667V31.2333C3.75 30.1383 4.14167 29.0817 4.85333 28.25L13.2483 18.4567C13.5717 18.0783 13.75 17.5983 13.75 17.1V7.5C13.75 7.16848 13.8817 6.85054 14.1161 6.61612C14.3505 6.3817 14.6685 6.25 15 6.25Z" fill="white"/>
<path fill-rule="evenodd" clip-rule="evenodd" d="M20.8534 14.07C21.0997 14.2917 21.248 14.6022 21.2655 14.9332C21.283 15.2642 21.1683 15.5885 20.9467 15.835L20.93 15.8517C20.7065 16.0911 20.398 16.2332 20.0708 16.2475C19.7436 16.2618 19.4238 16.147 19.1803 15.928C18.9368 15.709 18.789 15.4031 18.7687 15.0762C18.7484 14.7493 18.8572 14.4275 19.0717 14.18L19.0884 14.1633C19.3101 13.9169 19.6205 13.7687 19.9515 13.7512C20.2825 13.7337 20.6069 13.8484 20.8534 14.07ZM19.1867 2.40333C19.4331 2.62504 19.5813 2.93552 19.5988 3.2665C19.6163 3.59749 19.5016 3.92187 19.28 4.16833L19.2634 4.185C19.0399 4.42441 18.7313 4.56655 18.4041 4.58083C18.0769 4.5951 17.7571 4.48038 17.5136 4.26134C17.2701 4.0423 17.1223 3.73643 17.102 3.40954C17.0817 3.08264 17.1905 2.76083 17.405 2.51333L17.4217 2.49666C17.6434 2.25028 17.9539 2.10204 18.2849 2.08454C18.6158 2.06704 18.9402 2.18171 19.1867 2.40333Z" fill="white"/>
</svg>
