<svg width="40" height="40" viewBox="0 0 40 40" fill="none" xmlns="http://www.w3.org/2000/svg">
<path d="M8.33301 10.8333C9.71372 10.8333 10.833 9.71406 10.833 8.33334C10.833 6.95263 9.71372 5.83334 8.33301 5.83334C6.9523 5.83334 5.83301 6.95263 5.83301 8.33334C5.83301 9.71406 6.9523 10.8333 8.33301 10.8333Z" fill="white"/>
<path d="M20 10.8333C21.3807 10.8333 22.5 9.71406 22.5 8.33334C22.5 6.95263 21.3807 5.83334 20 5.83334C18.6193 5.83334 17.5 6.95263 17.5 8.33334C17.5 9.71406 18.6193 10.8333 20 10.8333Z" fill="white"/>
<path d="M31.666 10.8333C33.0467 10.8333 34.166 9.71406 34.166 8.33334C34.166 6.95263 33.0467 5.83334 31.666 5.83334C30.2853 5.83334 29.166 6.95263 29.166 8.33334C29.166 9.71406 30.2853 10.8333 31.666 10.8333Z" fill="white"/>
<path d="M8.33301 22.5C9.71372 22.5 10.833 21.3807 10.833 20C10.833 18.6193 9.71372 17.5 8.33301 17.5C6.9523 17.5 5.83301 18.6193 5.83301 20C5.83301 21.3807 6.9523 22.5 8.33301 22.5Z" fill="white"/>
<path d="M20 22.5C21.3807 22.5 22.5 21.3807 22.5 20C22.5 18.6193 21.3807 17.5 20 17.5C18.6193 17.5 17.5 18.6193 17.5 20C17.5 21.3807 18.6193 22.5 20 22.5Z" fill="white"/>
<path d="M31.666 22.5C33.0467 22.5 34.166 21.3807 34.166 20C34.166 18.6193 33.0467 17.5 31.666 17.5C30.2853 17.5 29.166 18.6193 29.166 20C29.166 21.3807 30.2853 22.5 31.666 22.5Z" fill="white"/>
<path d="M8.33301 34.1667C9.71372 34.1667 10.833 33.0474 10.833 31.6667C10.833 30.286 9.71372 29.1667 8.33301 29.1667C6.9523 29.1667 5.83301 30.286 5.83301 31.6667C5.83301 33.0474 6.9523 34.1667 8.33301 34.1667Z" fill="white"/>
<path d="M20 34.1667C21.3807 34.1667 22.5 33.0474 22.5 31.6667C22.5 30.286 21.3807 29.1667 20 29.1667C18.6193 29.1667 17.5 30.286 17.5 31.6667C17.5 33.0474 18.6193 34.1667 20 34.1667Z" fill="white"/>
<path d="M31.666 34.1667C33.0467 34.1667 34.166 33.0474 34.166 31.6667C34.166 30.286 33.0467 29.1667 31.666 29.1667C30.2853 29.1667 29.166 30.286 29.166 31.6667C29.166 33.0474 30.2853 34.1667 31.666 34.1667Z" fill="white"/>
</svg>
