<svg width="272" height="272" viewBox="0 0 272 272" fill="none" xmlns="http://www.w3.org/2000/svg">
<rect x="1" y="1" width="78" height="78" fill="#5452FF"/>
<rect x="1" y="1" width="78" height="78" stroke="black" stroke-width="2"/>
<path d="M40 16L49.1694 27.3793L62.8254 32.5836L54.8365 44.8207L54.1068 59.4164L40 55.6L25.8932 59.4164L25.1635 44.8207L17.1746 32.5836L30.8305 27.3793L40 16Z" fill="#FFC600"/>
<rect x="97" y="1" width="78" height="78" fill="#F24D1D"/>
<rect x="97" y="1" width="78" height="78" stroke="black" stroke-width="2"/>
<path d="M136 18C148.15 18 158 27.8497 158 40C158 52.1503 148.15 62 136 62H114V40C114 27.8497 123.85 18 136 18Z" fill="#20A65A" stroke="black" stroke-width="2"/>
<rect x="1" y="97" width="78" height="78" fill="#FFC600"/>
<rect x="1" y="97" width="78" height="78" stroke="black" stroke-width="2"/>
<path d="M30 117H79V175H21V126C21 121.029 25.0294 117 30 117Z" fill="#F24D1D" stroke="black" stroke-width="2"/>
<rect x="21" y="132" width="58" height="43" fill="#5452FF" stroke="black" stroke-width="2"/>
<rect x="97" y="97" width="78" height="78" fill="#2C2C2C"/>
<rect x="97" y="97" width="78" height="78" stroke="black" stroke-width="2"/>
<rect x="193" y="97" width="78" height="78" fill="#FFC600"/>
<rect x="193" y="97" width="78" height="78" stroke="black" stroke-width="2"/>
<path d="M252.21 135.034L235.254 135.374L234.464 135.39L234.297 136.162L230.702 152.736L221.285 119.377L252.21 135.034Z" fill="#20A65A" stroke="black" stroke-width="2"/>
<rect x="193" y="193" width="78" height="78" fill="#F24D1D"/>
<rect x="193" y="193" width="78" height="78" stroke="black" stroke-width="2"/>
<mask id="path-12-inside-1_294_95" fill="white">
<path d="M242.5 207C250.508 207 257 213.492 257 221.5C257 225.377 255.478 228.898 252.999 231.5C255.478 234.102 257 237.623 257 241.5C257 249.508 250.508 256 242.5 256C238.369 256 234.641 254.272 232 251.499C229.359 254.272 225.631 256 221.5 256C213.492 256 207 249.508 207 241.5C207 237.623 208.522 234.102 211 231.5C208.522 228.898 207 225.377 207 221.5C207 213.492 213.492 207 221.5 207C225.631 207 229.359 208.728 232 211.5C234.641 208.728 238.369 207 242.5 207Z"/>
</mask>
<path d="M242.5 207C250.508 207 257 213.492 257 221.5C257 225.377 255.478 228.898 252.999 231.5C255.478 234.102 257 237.623 257 241.5C257 249.508 250.508 256 242.5 256C238.369 256 234.641 254.272 232 251.499C229.359 254.272 225.631 256 221.5 256C213.492 256 207 249.508 207 241.5C207 237.623 208.522 234.102 211 231.5C208.522 228.898 207 225.377 207 221.5C207 213.492 213.492 207 221.5 207C225.631 207 229.359 208.728 232 211.5C234.641 208.728 238.369 207 242.5 207Z" fill="#FFC600"/>
<path d="M252.999 231.5L251.551 230.12L250.237 231.5L251.551 232.88L252.999 231.5ZM232 251.499L233.448 250.12L232 248.599L230.552 250.12L232 251.499ZM211 231.5L212.448 232.88L213.762 231.5L212.448 230.12L211 231.5ZM232 211.5L230.552 212.88L232 214.4L233.448 212.88L232 211.5ZM242.5 207V209C249.404 209 255 214.596 255 221.5H257H259C259 212.387 251.613 205 242.5 205V207ZM257 221.5H255C255 224.843 253.69 227.876 251.551 230.12L252.999 231.5L254.447 232.88C257.266 229.921 259 225.911 259 221.5H257ZM252.999 231.5L251.551 232.88C253.69 235.124 255 238.157 255 241.5H257H259C259 237.089 257.266 233.079 254.447 230.12L252.999 231.5ZM257 241.5H255C255 248.404 249.404 254 242.5 254V256V258C251.613 258 259 250.613 259 241.5H257ZM242.5 256V254C238.938 254 235.728 252.513 233.448 250.12L232 251.499L230.552 252.878C233.555 256.031 237.799 258 242.5 258V256ZM232 251.499L230.552 250.12C228.272 252.513 225.062 254 221.5 254V256V258C226.201 258 230.445 256.031 233.448 252.878L232 251.499ZM221.5 256V254C214.596 254 209 248.404 209 241.5H207H205C205 250.613 212.387 258 221.5 258V256ZM207 241.5H209C209 238.157 210.31 235.124 212.448 232.88L211 231.5L209.552 230.12C206.733 233.079 205 237.089 205 241.5H207ZM211 231.5L212.448 230.12C210.31 227.876 209 224.843 209 221.5H207H205C205 225.911 206.733 229.921 209.552 232.88L211 231.5ZM207 221.5H209C209 214.596 214.596 209 221.5 209V207V205C212.387 205 205 212.387 205 221.5H207ZM221.5 207V209C225.062 209 228.273 210.487 230.552 212.88L232 211.5L233.448 210.12C230.445 206.968 226.201 205 221.5 205V207ZM232 211.5L233.448 212.88C235.727 210.487 238.938 209 242.5 209V207V205C237.799 205 233.555 206.968 230.552 210.12L232 211.5Z" fill="black" mask="url(#path-12-inside-1_294_95)"/>
<rect x="97" y="193" width="78" height="78" fill="#20A65A"/>
<rect x="97" y="193" width="78" height="78" stroke="black" stroke-width="2"/>
<circle cx="136" cy="232" r="21" fill="black" stroke="#FFC600" stroke-width="6"/>
<rect x="1" y="193" width="78" height="78" fill="#F24D1D"/>
<rect x="1" y="193" width="78" height="78" stroke="black" stroke-width="2"/>
<mask id="path-17-inside-2_294_95" fill="white">
<path d="M40 216C50.9943 216 60.496 222.529 65 232C60.496 241.471 50.9943 248 40 248C29.0058 248 19.5039 241.471 15 232C19.5039 222.529 29.0058 216 40 216Z"/>
</mask>
<path d="M40 216C50.9943 216 60.496 222.529 65 232C60.496 241.471 50.9943 248 40 248C29.0058 248 19.5039 241.471 15 232C19.5039 222.529 29.0058 216 40 216Z" fill="#20A65A"/>
<path d="M40 216V214H40L40 216ZM65 232L66.8062 232.859L67.2146 232L66.8062 231.141L65 232ZM40 248L40 250H40V248ZM15 232L13.1938 231.141L12.7854 232L13.1938 232.859L15 232ZM40 216V218C50.1757 218 59.0007 224.041 63.1938 232.859L65 232L66.8062 231.141C61.9913 221.016 51.8129 214 40 214V216ZM65 232L63.1938 231.141C59.0007 239.959 50.1757 246 40 246V248V250C51.8128 250 61.9913 242.984 66.8062 232.859L65 232ZM40 248L40 246C29.8243 246 20.9992 239.959 16.8062 231.141L15 232L13.1938 232.859C18.0086 242.984 28.1872 250 40 250L40 248ZM15 232L16.8062 232.859C20.9992 224.041 29.8243 218 40 218L40 216L40 214C28.1872 214 18.0086 221.016 13.1938 231.141L15 232Z" fill="black" mask="url(#path-17-inside-2_294_95)"/>
<circle cx="39.5" cy="231.5" r="7.5" fill="black"/>
<rect x="193" y="1" width="78" height="78" fill="#5452FF"/>
<rect x="193" y="1" width="78" height="78" stroke="black" stroke-width="2"/>
<rect x="210" y="18" width="44" height="44" rx="10" fill="#FFC600"/>
<line x1="226.5" y1="28" x2="226.5" y2="52" stroke="black"/>
<line x1="244" y1="34.5" x2="220" y2="34.5" stroke="black"/>
<line x1="237.5" y1="28" x2="237.5" y2="52" stroke="black"/>
<line x1="244" y1="45.5" x2="220" y2="45.5" stroke="black"/>
<path d="M126.807 109.5H135.113V126.113H126.807C122.219 126.113 118.5 122.394 118.5 117.807C118.5 113.219 122.219 109.5 126.807 109.5Z" stroke="white" stroke-width="3"/>
<path d="M144.785 126.113L136.478 126.113L136.478 109.5L144.785 109.5C149.372 109.5 153.091 113.219 153.091 117.806C153.091 122.394 149.372 126.113 144.785 126.113Z" stroke="white" stroke-width="3"/>
<path d="M126.807 127.887H135.113V144.5H126.807C122.219 144.5 118.5 140.781 118.5 136.194C118.5 131.606 122.219 127.887 126.807 127.887Z" stroke="white" stroke-width="3"/>
<path d="M126.807 146.274H135.113V154.581C135.113 159.168 131.394 162.887 126.807 162.887C122.219 162.887 118.5 159.168 118.5 154.581C118.5 149.993 122.219 146.274 126.807 146.274Z" stroke="white" stroke-width="3"/>
<path d="M145.699 126.4C150.713 126.654 154.733 130.675 154.988 135.689L155 136.194C155 141.609 150.609 146 145.194 146L144.689 145.988C139.508 145.725 135.387 141.44 135.387 136.194L135.4 135.689C135.478 134.139 135.918 132.684 136.635 131.406L136.297 127.101L140.559 127.55C141.939 126.808 143.517 126.387 145.194 126.387L145.699 126.4ZM145.194 129.387C141.435 129.387 138.387 132.435 138.387 136.194C138.387 139.953 141.435 143 145.194 143C148.952 143 152 139.952 152 136.194C152 132.435 148.953 129.387 145.194 129.387Z" fill="white"/>
</svg>
