<svg width="79" height="118" viewBox="0 0 79 118" fill="none" xmlns="http://www.w3.org/2000/svg">
<path d="M20.3867 2H38.7744V38.7744H20.3867C10.232 38.7742 2 30.5415 2 20.3867C2.0002 10.2321 10.2321 2.0002 20.3867 2Z" stroke="white" stroke-width="4"/>
<path d="M57.7638 38.7742L39.3761 38.7742L39.3761 1.99979L57.7638 1.99979C67.9185 1.99999 76.1505 10.2327 76.1505 20.3875C76.1503 30.5421 67.9184 38.774 57.7638 38.7742Z" stroke="white" stroke-width="4"/>
<path d="M20.3867 40.2258L38.7744 40.2258L38.7744 77.0002H20.3867C10.232 77 2 68.7673 2 58.6125C2.0002 48.4579 10.2321 40.226 20.3867 40.2258Z" stroke="white" stroke-width="4"/>
<path d="M20.3867 78.4516H38.7744V96.8383C38.7744 106.993 30.5416 115.226 20.3867 115.226C10.232 115.226 2 106.993 2 96.8383C2.0002 86.6837 10.2321 78.4518 20.3867 78.4516Z" stroke="white" stroke-width="4"/>
<mask id="path-5-inside-1_14_173" fill="white">
<path d="M59.1389 38.2326C70.1553 38.5116 79.0002 47.5299 79.0002 58.6135C78.9999 69.8725 69.8725 78.9999 58.6135 79.0002C47.3542 79.0002 38.2261 69.8727 38.2258 58.6135L38.2327 58.0871C38.3193 54.6656 39.2488 51.4533 40.8215 48.6506L40.1184 39.7102L48.9749 40.6438C51.8449 39.1011 55.1271 38.2258 58.6135 38.2258L59.1389 38.2326ZM58.6135 41.2258C49.0109 41.2258 41.2258 49.0109 41.2258 58.6135C41.2261 68.2158 49.0111 76.0002 58.6135 76.0002C68.2157 75.9999 75.9999 68.2156 76.0002 58.6135C76.0002 49.0111 68.2159 41.2261 58.6135 41.2258Z"/>
</mask>
<path d="M59.1389 38.2326C70.1553 38.5116 79.0002 47.5299 79.0002 58.6135C78.9999 69.8725 69.8725 78.9999 58.6135 79.0002C47.3542 79.0002 38.2261 69.8727 38.2258 58.6135L38.2327 58.0871C38.3193 54.6656 39.2488 51.4533 40.8215 48.6506L40.1184 39.7102L48.9749 40.6438C51.8449 39.1011 55.1271 38.2258 58.6135 38.2258L59.1389 38.2326ZM58.6135 41.2258C49.0109 41.2258 41.2258 49.0109 41.2258 58.6135C41.2261 68.2158 49.0111 76.0002 58.6135 76.0002C68.2157 75.9999 75.9999 68.2156 76.0002 58.6135C76.0002 49.0111 68.2159 41.2261 58.6135 41.2258Z" fill="white"/>
<path d="M59.1389 38.2326L59.1642 37.2329L59.1519 37.2327L59.1389 38.2326ZM79.0002 58.6135L80.0002 58.6135V58.6135H79.0002ZM58.6135 79.0002V80.0002H58.6136L58.6135 79.0002ZM38.2258 58.6135L37.2258 58.6005L37.2258 58.6135L38.2258 58.6135ZM38.2327 58.0871L37.2329 58.0618L37.2328 58.0741L38.2327 58.0871ZM40.8215 48.6506L41.6936 49.14L41.8423 48.8751L41.8185 48.5722L40.8215 48.6506ZM40.1184 39.7102L40.2232 38.7157L39.0272 38.5896L39.1215 39.7886L40.1184 39.7102ZM48.9749 40.6438L48.87 41.6383L49.1767 41.6706L49.4483 41.5246L48.9749 40.6438ZM58.6135 38.2258L58.6265 37.2258H58.6135V38.2258ZM58.6135 41.2258L58.6136 40.2258H58.6135V41.2258ZM41.2258 58.6135H40.2258V58.6135L41.2258 58.6135ZM58.6135 76.0002V77.0002H58.6136L58.6135 76.0002ZM76.0002 58.6135L77.0002 58.6135V58.6135H76.0002ZM59.1389 38.2326L59.1136 39.2323C69.5891 39.4976 78.0002 48.0737 78.0002 58.6135H79.0002H80.0002C80.0002 46.9861 70.7215 37.5257 59.1642 37.233L59.1389 38.2326ZM79.0002 58.6135L78.0002 58.6135C77.9999 69.3202 69.3202 77.9999 58.6135 78.0002L58.6135 79.0002L58.6136 80.0002C70.4248 79.9999 79.9999 70.4248 80.0002 58.6135L79.0002 58.6135ZM58.6135 79.0002V78.0002C47.9065 78.0002 39.2261 69.3204 39.2258 58.6135L38.2258 58.6135L37.2258 58.6135C37.2262 70.425 46.802 80.0002 58.6135 80.0002V79.0002ZM38.2258 58.6135L39.2257 58.6265L39.2326 58.1001L38.2327 58.0871L37.2328 58.0741L37.2259 58.6005L38.2258 58.6135ZM38.2327 58.0871L39.2323 58.1124C39.3148 54.8577 40.1985 51.8042 41.6936 49.14L40.8215 48.6506L39.9495 48.1612C38.299 51.1023 37.3239 54.4735 37.233 58.0618L38.2327 58.0871ZM40.8215 48.6506L41.8185 48.5722L41.1153 39.6318L40.1184 39.7102L39.1215 39.7886L39.8246 48.729L40.8215 48.6506ZM40.1184 39.7102L40.0136 40.7047L48.87 41.6383L48.9749 40.6438L49.0797 39.6493L40.2232 38.7157L40.1184 39.7102ZM48.9749 40.6438L49.4483 41.5246C52.1764 40.0582 55.2963 39.2258 58.6135 39.2258V38.2258V37.2258C54.9578 37.2258 51.5134 38.144 48.5014 39.7629L48.9749 40.6438ZM58.6135 38.2258L58.6005 39.2257L59.1259 39.2326L59.1389 38.2326L59.1519 37.2327L58.6265 37.2259L58.6135 38.2258ZM58.6135 41.2258V40.2258C48.4586 40.2258 40.2258 48.4586 40.2258 58.6135H41.2258H42.2258C42.2258 49.5632 49.5632 42.2258 58.6135 42.2258V41.2258ZM41.2258 58.6135L40.2258 58.6135C40.2262 68.7682 48.4589 77.0002 58.6135 77.0002V76.0002V75.0002C49.5633 75.0002 42.2261 67.6635 42.2258 58.6135L41.2258 58.6135ZM58.6135 76.0002L58.6136 77.0002C68.768 76.9999 76.9999 68.7679 77.0002 58.6135L76.0002 58.6135L75.0002 58.6135C74.9999 67.6633 67.6634 74.9999 58.6135 75.0002L58.6135 76.0002ZM76.0002 58.6135H77.0002C77.0002 48.4588 68.7682 40.2262 58.6136 40.2258L58.6135 41.2258L58.6135 42.2258C67.6635 42.2261 75.0002 49.5633 75.0002 58.6135H76.0002Z" fill="white" mask="url(#path-5-inside-1_14_173)"/>
</svg>
