<svg width="96" height="96" viewBox="0 0 96 96" fill="none" xmlns="http://www.w3.org/2000/svg">
<g clip-path="url(#clip0_308_265)">
<path d="M48 95.213C74.51 95.213 96 91.338 96 86.557C96 81.777 74.51 77.902 48 77.902C21.49 77.902 0 81.777 0 86.557C0 91.337 21.49 95.213 48 95.213Z" fill="url(#paint0_radial_308_265)"/>
<path d="M48 77.115C74.51 77.115 96 60.028 96 38.951C96 17.873 74.51 0.787 48 0.787C21.49 0.787 0 17.874 0 38.95C0 60.026 21.49 77.115 48 77.115Z" fill="url(#paint1_radial_308_265)"/>
<path fill-rule="evenodd" clip-rule="evenodd" d="M75.376 75.624C75.5518 75.1797 75.5886 74.6925 75.4816 74.2269C75.3745 73.7612 75.1287 73.339 74.7765 73.0161C74.4243 72.6932 73.9824 72.4848 73.5092 72.4184C73.036 72.3521 72.5539 72.431 72.1265 72.6446C71.6991 72.8582 71.3466 73.1965 71.1156 73.6148C70.8846 74.0331 70.7861 74.5116 70.833 74.9871C70.8798 75.4626 71.07 75.9127 71.3782 76.2778C71.6863 76.643 72.0981 76.9059 72.559 77.032C72.497 77.189 72.452 77.352 72.425 77.518C71.7015 77.9344 71.1728 78.6209 70.9551 79.4268C70.7374 80.2326 70.8485 81.092 71.264 81.816C71.4698 82.1745 71.7442 82.489 72.0716 82.7414C72.3989 82.9938 72.7728 83.1792 73.1719 83.287C73.571 83.3948 73.9874 83.4229 74.3973 83.3697C74.8072 83.3165 75.2027 83.1831 75.561 82.977C75.6225 83.5185 75.8236 84.0348 76.1445 84.4754C76.4654 84.9159 76.8952 85.2655 77.3918 85.4901C77.8884 85.7147 78.4348 85.8065 78.9776 85.7565C79.5203 85.7065 80.0408 85.5165 80.488 85.205C80.6389 85.5229 80.859 85.803 81.1322 86.0248C81.4053 86.2466 81.7247 86.4045 82.0667 86.487C82.4088 86.5695 82.765 86.5744 83.1093 86.5015C83.4535 86.4285 83.7771 86.2795 84.0563 86.0653C84.3355 85.8512 84.5633 85.5773 84.7229 85.2637C84.8826 84.9501 84.9701 84.6048 84.9791 84.253C84.9881 83.9013 84.9183 83.5519 84.7749 83.2306C84.6314 82.9093 84.4179 82.6241 84.15 82.396C84.6969 81.7978 84.992 81.0116 84.9738 80.2013C84.9556 79.3909 84.6255 78.6188 84.0523 78.0457C83.4791 77.4726 82.7069 77.1427 81.8966 77.1247C81.0862 77.1067 80.3001 77.402 79.702 77.949C79.3833 77.5716 78.9541 77.3039 78.4749 77.1838C77.9958 77.0637 77.491 77.0974 77.032 77.28C76.9235 76.884 76.7137 76.523 76.4234 76.2326C76.133 75.9423 75.772 75.7325 75.376 75.624ZM24.393 77.114C24.393 77.424 24.349 77.733 24.259 78.029C24.8617 78.1796 25.425 78.4582 25.9104 78.8458C26.3959 79.2335 26.7922 79.7211 27.0725 80.2756C27.3527 80.83 27.5103 81.4383 27.5346 82.0591C27.5588 82.6799 27.4491 83.2986 27.2129 83.8732C26.9768 84.4478 26.6197 84.9648 26.1659 85.3892C25.7121 85.8135 25.1723 86.1351 24.5831 86.3323C23.994 86.5294 23.3693 86.5974 22.7515 86.5316C22.1338 86.4658 21.5374 86.2678 21.003 85.951C20.5145 86.3441 19.906 86.558 19.279 86.557C18.802 86.558 18.333 86.434 17.919 86.199C17.7417 86.5885 17.4422 86.9095 17.0659 87.1133C16.6895 87.3171 16.257 87.3926 15.8339 87.3282C15.4108 87.2638 15.0203 87.0632 14.7216 86.7567C14.4229 86.4502 14.2324 86.0546 14.179 85.63C13.8232 85.7582 13.4418 85.7991 13.0669 85.7491C12.6921 85.6992 12.3347 85.5598 12.0249 85.3429C11.7151 85.1259 11.462 84.8377 11.2869 84.5025C11.1118 84.1673 11.0199 83.7949 11.0188 83.4167C11.0176 83.0385 11.1074 82.6656 11.2806 82.3294C11.4537 81.9932 11.7051 81.7035 12.0136 81.4847C12.3221 81.2659 12.6787 81.1245 13.0533 81.0724C13.4278 81.0202 13.8095 81.0588 14.166 81.185C14.1442 80.6814 14.2437 80.18 14.456 79.7229C14.6684 79.2657 14.9874 78.8663 15.3862 78.5581C15.7851 78.2499 16.2521 78.042 16.748 77.9518C17.2439 77.8617 17.7542 77.8919 18.236 78.04C18.1029 77.6071 18.0648 77.1505 18.1243 76.7015C18.1838 76.2524 18.3394 75.8215 18.5807 75.4382C18.8219 75.0548 19.1431 74.7281 19.5222 74.4802C19.9013 74.2323 20.3294 74.0691 20.7773 74.0018C21.2252 73.9345 21.6824 73.9647 22.1176 74.0902C22.5528 74.2158 22.9558 74.4338 23.299 74.7293C23.6423 75.0249 23.9177 75.391 24.1065 75.8027C24.2953 76.2144 24.393 76.661 24.393 77.114Z" fill="url(#paint2_radial_308_265)"/>
<path fill-rule="evenodd" clip-rule="evenodd" d="M51.934 20.459C51.934 20.847 51.864 21.219 51.736 21.561C51.97 21.675 52.188 21.817 52.386 21.983C52.7014 21.4587 53.1628 21.0378 53.7138 20.7717C54.2647 20.5056 54.8813 20.406 55.488 20.485C55.8335 19.871 56.375 19.3906 57.0259 19.1209C57.6768 18.8512 58.3994 18.8077 59.0779 18.9973C59.7565 19.187 60.3518 19.5989 60.7684 20.1671C61.1851 20.7353 61.399 21.4268 61.376 22.131C61.7853 22.237 62.1692 22.4243 62.5047 22.6816C62.8402 22.939 63.1205 23.2611 63.329 23.629C64.112 23.724 64.83 24.109 65.342 24.707C66.1143 24.3774 66.9718 24.3035 67.7891 24.4961C68.6064 24.6887 69.3406 25.1377 69.8845 25.7775C70.4284 26.4172 70.7533 27.2141 70.8119 28.0518C70.8705 28.8894 70.6596 29.7238 70.21 30.433C70.769 30.808 71.193 31.351 71.422 31.985C71.8981 31.3334 72.6063 30.8896 73.4003 30.7452C74.1942 30.6008 75.0133 30.7668 75.6884 31.2089C76.3635 31.6511 76.843 32.3356 77.0279 33.1211C77.2128 33.9066 77.089 34.7332 76.682 35.43C77.2159 35.4906 77.7254 35.6869 78.1619 36.0002C78.5984 36.3135 78.9475 36.7333 79.1758 37.2197C79.4041 37.7061 79.5041 38.2428 79.4662 38.7788C79.4283 39.3148 79.2538 39.8321 78.9594 40.2816C78.6649 40.731 78.2603 41.0976 77.784 41.3463C77.3078 41.5951 76.7757 41.7178 76.2386 41.7027C75.7015 41.6876 75.1772 41.5352 74.7157 41.2601C74.2542 40.985 73.8708 40.5963 73.602 40.131H24.392V38.923C23.7989 39.2651 23.1105 39.4046 22.431 39.3202C21.7516 39.2359 21.1181 38.9323 20.6267 38.4555C20.1354 37.9787 19.8128 37.3547 19.708 36.6781C19.6032 36.0014 19.7219 35.3091 20.046 34.706C19.4374 34.2119 19.035 33.5086 18.9175 32.7335C18.8001 31.9584 18.9761 31.1674 19.411 30.5152C19.846 29.8631 20.5086 29.3966 21.2693 29.2072C22.03 29.0178 22.834 29.119 23.524 29.491C23.8186 29.1273 24.1908 28.8341 24.6133 28.6327C25.0358 28.4313 25.498 28.3269 25.966 28.327C25.9658 27.8792 26.0611 27.4366 26.2457 27.0286C26.4302 26.6207 26.6997 26.2568 27.0361 25.9613C27.3725 25.6657 27.7681 25.4454 28.1964 25.315C28.6248 25.1846 29.076 25.1471 29.52 25.205C29.8311 24.6544 30.3009 24.2102 30.8682 23.9305C31.4354 23.6508 32.0738 23.5486 32.7 23.637C32.3157 22.9907 32.1755 22.2282 32.3048 21.4875C32.434 20.7468 32.8242 20.0768 33.4048 19.5989C33.9853 19.121 34.7177 18.8668 35.4694 18.8822C36.2212 18.8976 36.9426 19.1817 37.503 19.683C38.1984 19.624 38.8938 19.7976 39.4799 20.1766C40.0659 20.5556 40.5095 21.1186 40.741 21.777C41.151 21.501 41.621 21.327 42.112 21.267C42.4593 20.6533 43.0026 20.1739 43.6549 19.9059C44.3072 19.6379 45.0305 19.5967 45.709 19.789C45.8742 19.0301 46.314 18.359 46.944 17.9048C47.574 17.4506 48.3497 17.2454 49.1219 17.3285C49.8941 17.4116 50.6083 17.7773 51.1273 18.3552C51.6462 18.933 51.9341 19.6823 51.934 20.459Z" fill="url(#paint3_radial_308_265)"/>
<path opacity="0.6" d="M46.033 36.984C47.0147 36.984 47.9868 36.7906 48.8937 36.415C49.8007 36.0393 50.6248 35.4886 51.319 34.7945C52.0131 34.1003 52.5638 33.2762 52.9395 32.3693C53.3151 31.4623 53.5085 30.4902 53.5085 29.5085C53.5085 28.5268 53.3151 27.5547 52.9395 26.6478C52.5638 25.7408 52.0131 24.9167 51.319 24.2225C50.6248 23.5284 49.8007 22.9777 48.8937 22.602C47.9868 22.2264 47.0147 22.033 46.033 22.033C44.0505 22.033 42.1492 22.8205 40.7474 24.2224C39.3455 25.6242 38.558 27.5255 38.558 29.508C38.558 31.4905 39.3455 33.3918 40.7474 34.7936C42.1492 36.1955 44.0505 36.984 46.033 36.984Z" fill="url(#paint4_radial_308_265)"/>
<path opacity="0.6" d="M43.672 32.262C45.0286 32.262 46.3296 31.7231 47.2889 30.7639C48.2481 29.8046 48.787 28.5036 48.787 27.147C48.787 25.7904 48.2481 24.4894 47.2889 23.5301C46.3296 22.5709 45.0286 22.032 43.672 22.032C42.3154 22.032 41.0144 22.5709 40.0551 23.5301C39.0959 24.4894 38.557 25.7904 38.557 27.147C38.557 28.5036 39.0959 29.8046 40.0551 30.7639C41.0144 31.7231 42.3154 32.262 43.672 32.262Z" fill="url(#paint5_radial_308_265)"/>
<path opacity="0.6" d="M42.098 36.197C43.4546 36.197 44.7556 35.6581 45.7149 34.6989C46.6741 33.7396 47.213 32.4386 47.213 31.082C47.213 29.7254 46.6741 28.4244 45.7149 27.4651C44.7556 26.5059 43.4546 25.967 42.098 25.967C40.7414 25.967 39.4404 26.5059 38.4811 27.4651C37.5219 28.4244 36.983 29.7254 36.983 31.082C36.983 32.4386 37.5219 33.7396 38.4811 34.6989C39.4404 35.6581 40.7414 36.197 42.098 36.197Z" fill="url(#paint6_radial_308_265)"/>
<path opacity="0.6" d="M27.148 38.557C28.5046 38.557 29.8056 38.0181 30.7649 37.0588C31.7241 36.0996 32.263 34.7986 32.263 33.442C32.263 32.0854 31.7241 30.7844 30.7649 29.8251C29.8056 28.8659 28.5046 28.327 27.148 28.327C25.7914 28.327 24.4904 28.8659 23.5311 29.8251C22.5719 30.7844 22.033 32.0854 22.033 33.442C22.033 34.7986 22.5719 36.0996 23.5311 37.0588C24.4904 38.0181 25.7914 38.557 27.148 38.557Z" fill="url(#paint7_radial_308_265)"/>
<path opacity="0.6" d="M30.295 36.197C31.6516 36.197 32.9526 35.6581 33.9118 34.6989C34.8711 33.7396 35.41 32.4386 35.41 31.082C35.41 29.7254 34.8711 28.4244 33.9118 27.4651C32.9526 26.5059 31.6516 25.967 30.295 25.967C28.9384 25.967 27.6374 26.5059 26.6781 27.4651C25.7189 28.4244 25.18 29.7254 25.18 31.082C25.18 32.4386 25.7189 33.7396 26.6781 34.6989C27.6374 35.6581 28.9384 36.197 30.295 36.197Z" fill="url(#paint8_radial_308_265)"/>
<path opacity="0.6" d="M30.295 37.77C31.0254 37.77 31.7259 37.4798 32.2424 36.9634C32.7588 36.4469 33.049 35.7464 33.049 35.016C33.049 34.2856 32.7588 33.5851 32.2424 33.0686C31.7259 32.5522 31.0254 32.262 30.295 32.262C29.5646 32.262 28.8641 32.5522 28.3476 33.0686C27.8312 33.5851 27.541 34.2856 27.541 35.016C27.541 35.7464 27.8312 36.4469 28.3476 36.9634C28.8641 37.4798 29.5646 37.77 30.295 37.77Z" fill="url(#paint9_radial_308_265)"/>
<path opacity="0.2" d="M73.574 36.197C74.3044 36.197 75.0049 35.9068 75.5214 35.3904C76.0378 34.8739 76.328 34.1734 76.328 33.443C76.328 32.7126 76.0378 32.0121 75.5214 31.4956C75.0049 30.9792 74.3044 30.689 73.574 30.689C72.8436 30.689 72.1431 30.9792 71.6266 31.4956C71.1101 32.0121 70.82 32.7126 70.82 33.443C70.82 34.1734 71.1101 34.8739 71.6266 35.3904C72.1431 35.9068 72.8436 36.197 73.574 36.197Z" fill="url(#paint10_radial_308_265)"/>
<path opacity="0.2" d="M76.721 39.344C77.2427 39.344 77.743 39.1368 78.1119 38.7679C78.4808 38.399 78.688 37.8987 78.688 37.377C78.688 36.8553 78.4808 36.355 78.1119 35.9861C77.743 35.6172 77.2427 35.41 76.721 35.41C76.1993 35.41 75.699 35.6172 75.3301 35.9861C74.9612 36.355 74.754 36.8553 74.754 37.377C74.754 37.8987 74.9612 38.399 75.3301 38.7679C75.699 39.1368 76.1993 39.344 76.721 39.344Z" fill="url(#paint11_radial_308_265)"/>
<path opacity="0.3" d="M72.787 40.131C73.7261 40.131 74.6268 39.7579 75.2909 39.0939C75.9549 38.4298 76.328 37.5291 76.328 36.59C76.328 35.6509 75.9549 34.7502 75.2909 34.0861C74.6268 33.4221 73.7261 33.049 72.787 33.049C71.8479 33.049 70.9472 33.4221 70.2831 34.0861C69.6191 34.7502 69.246 35.6509 69.246 36.59C69.246 37.5291 69.6191 38.4298 70.2831 39.0939C70.9472 39.7579 71.8479 40.131 72.787 40.131Z" fill="url(#paint12_radial_308_265)"/>
<path opacity="0.2" d="M58.623 24.393C58.9847 24.393 59.3428 24.3218 59.6769 24.1834C60.011 24.045 60.3146 23.8421 60.5704 23.5864C60.8261 23.3306 61.029 23.027 61.1674 22.6929C61.3058 22.3588 61.377 22.0007 61.377 21.639C61.377 21.2773 61.3058 20.9192 61.1674 20.5851C61.029 20.251 60.8261 19.9474 60.5704 19.6916C60.3146 19.4359 60.011 19.233 59.6769 19.0946C59.3428 18.9562 58.9847 18.885 58.623 18.885C57.8926 18.885 57.1921 19.1752 56.6756 19.6916C56.1592 20.2081 55.869 20.9086 55.869 21.639C55.869 22.3694 56.1592 23.0699 56.6756 23.5864C57.1921 24.1028 57.8926 24.393 58.623 24.393Z" fill="url(#paint13_radial_308_265)"/>
<path opacity="0.2" d="M48.393 21.246C48.9148 21.246 49.4153 21.0387 49.7842 20.6697C50.1532 20.3008 50.3605 19.8003 50.3605 19.2785C50.3605 18.7567 50.1532 18.2562 49.7842 17.8873C49.4153 17.5183 48.9148 17.311 48.393 17.311C47.8712 17.311 47.3707 17.5183 47.0018 17.8873C46.6328 18.2562 46.4255 18.7567 46.4255 19.2785C46.4255 19.8003 46.6328 20.3008 47.0018 20.6697C47.3707 21.0387 47.8712 21.246 48.393 21.246Z" fill="url(#paint14_radial_308_265)"/>
<path opacity="0.2" d="M35.016 23.607C35.5378 23.607 36.0383 23.3997 36.4072 23.0307C36.7762 22.6618 36.9835 22.1613 36.9835 21.6395C36.9835 21.1177 36.7762 20.6172 36.4072 20.2483C36.0383 19.8793 35.5378 19.672 35.016 19.672C34.4942 19.672 33.9937 19.8793 33.6248 20.2483C33.2558 20.6172 33.0485 21.1177 33.0485 21.6395C33.0485 22.1613 33.2558 22.6618 33.6248 23.0307C33.9937 23.3997 34.4942 23.607 35.016 23.607Z" fill="url(#paint15_radial_308_265)"/>
<path opacity="0.2" d="M61.77 33.05C63.1266 33.05 64.4276 32.5111 65.3868 31.5519C66.3461 30.5926 66.885 29.2916 66.885 27.935C66.885 26.5784 66.3461 25.2774 65.3868 24.3181C64.4276 23.3589 63.1266 22.82 61.77 22.82C60.4134 22.82 59.1124 23.3589 58.1531 24.3181C57.1939 25.2774 56.655 26.5784 56.655 27.935C56.655 29.2916 57.1939 30.5926 58.1531 31.5519C59.1124 32.5111 60.4134 33.05 61.77 33.05Z" fill="url(#paint16_radial_308_265)"/>
<path opacity="0.6" d="M57.05 31.475C57.7277 31.4845 58.4005 31.3592 59.0293 31.1064C59.6581 30.8536 60.2304 30.4784 60.713 30.0025C61.1956 29.5267 61.5787 28.9597 61.8403 28.3344C62.1018 27.7092 62.2365 27.0382 62.2365 26.3605C62.2365 25.6828 62.1018 25.0118 61.8403 24.3866C61.5787 23.7613 61.1956 23.1943 60.713 22.7185C60.2304 22.2426 59.6581 21.8674 59.0293 21.6146C58.4005 21.3618 57.7277 21.2365 57.05 21.246C55.6934 21.246 54.3924 21.7849 53.4331 22.7441C52.4739 23.7034 51.935 25.0044 51.935 26.361C51.935 27.7176 52.4739 29.0186 53.4331 29.9779C54.3924 30.9371 55.6934 31.475 57.05 31.475Z" fill="url(#paint17_radial_308_265)"/>
<path opacity="0.2" d="M59.41 33.836C60.7666 33.836 62.0676 33.2971 63.0269 32.3379C63.9861 31.3786 64.525 30.0776 64.525 28.721C64.525 27.3644 63.9861 26.0634 63.0269 25.1041C62.0676 24.1449 60.7666 23.606 59.41 23.606C58.0534 23.606 56.7524 24.1449 55.7931 25.1041C54.8339 26.0634 54.295 27.3644 54.295 28.721C54.295 30.0776 54.8339 31.3786 55.7931 32.3379C56.7524 33.2971 58.0534 33.836 59.41 33.836Z" fill="url(#paint18_radial_308_265)"/>
<path d="M18.885 36.984H63.738L59.803 88.918H22.033L18.885 36.984Z" fill="url(#paint19_linear_308_265)"/>
<path d="M71.607 85.77L59.803 88.918L63.738 36.984L78.688 40.918L71.607 85.77Z" fill="url(#paint20_linear_308_265)"/>
<path fill-rule="evenodd" clip-rule="evenodd" d="M46.33 47.333L46.584 36.983H37.196L37.3 46.823C35.6611 47.1892 34.0882 47.8047 32.636 48.648L32.309 36.984H22.902L25.829 88.918H33.772L33.455 77.698C34.7786 78.3692 36.1871 78.858 37.642 79.151L37.747 88.918H45.305L45.555 78.817C46.8397 78.4418 48.0738 77.9112 49.23 77.237L48.86 88.918H57.181L59.922 36.984H50.505L50.117 49.221C48.9408 48.4314 47.6676 47.7968 46.329 47.333H46.33ZM62.408 88.223L65.358 87.437L71.203 38.949L66.702 37.763L62.408 88.223ZM67.038 86.989L69.355 86.371L77.193 40.525L72.818 39.373L67.038 86.989ZM53.507 62.95C53.507 69.903 47.871 75.54 40.917 75.54C33.963 75.54 28.327 69.904 28.327 62.95C28.327 55.996 33.963 50.36 40.917 50.36C47.871 50.36 53.507 55.996 53.507 62.95ZM46.335 69.745L44.64 64.26L48.748 61.213C48.8117 61.1658 48.8595 61.1003 48.885 61.0252C48.9106 60.9501 48.9126 60.8691 48.8909 60.7928C48.8691 60.7166 48.8247 60.6487 48.7634 60.5984C48.7022 60.548 48.627 60.5176 48.548 60.511C46.8229 60.3718 45.0942 60.2804 43.364 60.237L41.288 54.525C41.2603 54.4492 41.2099 54.3837 41.1437 54.3375C41.0775 54.2912 40.9987 54.2664 40.918 54.2664C40.8373 54.2664 40.7585 54.2912 40.6923 54.3375C40.6261 54.3837 40.5757 54.4492 40.548 54.525L38.472 60.237C36.712 60.281 34.982 60.374 33.287 60.511C33.2081 60.5179 33.1332 60.5486 33.0723 60.5991C33.0113 60.6496 32.9671 60.7175 32.9457 60.7936C32.9242 60.8698 32.9264 60.9508 32.952 61.0257C32.9776 61.1006 33.0254 61.1659 33.089 61.213L37.196 64.259L35.5 69.744C35.4759 69.822 35.4767 69.9056 35.5022 69.9832C35.5277 70.0607 35.5766 70.1285 35.6423 70.177C35.708 70.2255 35.7871 70.2525 35.8687 70.2541C35.9504 70.2557 36.0305 70.2319 36.098 70.186L40.918 66.905L45.738 70.186C45.8054 70.2321 45.8856 70.2561 45.9673 70.2547C46.049 70.2533 46.1282 70.2265 46.194 70.178C46.2598 70.1296 46.3089 70.0619 46.3345 69.9843C46.3601 69.9067 46.361 69.8231 46.337 69.745H46.335Z" fill="url(#paint21_linear_308_265)"/>
<path opacity="0.4" d="M16.918 82.623C17.4397 82.623 17.94 82.4158 18.3089 82.0469C18.6778 81.678 18.885 81.1777 18.885 80.656C18.885 80.1343 18.6778 79.634 18.3089 79.2651C17.94 78.8962 17.4397 78.689 16.918 78.689C16.3963 78.689 15.896 78.8962 15.5271 79.2651C15.1582 79.634 14.951 80.1343 14.951 80.656C14.951 81.1777 15.1582 81.678 15.5271 82.0469C15.896 82.4158 16.3963 82.623 16.918 82.623Z" fill="url(#paint22_radial_308_265)"/>
<path opacity="0.4" d="M13.77 84.984C14.2918 84.984 14.7923 84.7767 15.1612 84.4077C15.5302 84.0388 15.7375 83.5383 15.7375 83.0165C15.7375 82.4947 15.5302 81.9942 15.1612 81.6253C14.7923 81.2563 14.2918 81.049 13.77 81.049C13.2482 81.049 12.7477 81.2563 12.3788 81.6253C12.0098 81.9942 11.8025 82.4947 11.8025 83.0165C11.8025 83.5383 12.0098 84.0388 12.3788 84.4077C12.7477 84.7767 13.2482 84.984 13.77 84.984Z" fill="url(#paint23_radial_308_265)"/>
<path opacity="0.4" d="M16.131 84.984C16.6528 84.984 17.1533 84.7767 17.5222 84.4077C17.8912 84.0388 18.0985 83.5383 18.0985 83.0165C18.0985 82.4947 17.8912 81.9942 17.5222 81.6253C17.1533 81.2563 16.6528 81.049 16.131 81.049C15.6092 81.049 15.1087 81.2563 14.7398 81.6253C14.3708 81.9942 14.1635 82.4947 14.1635 83.0165C14.1635 83.5383 14.3708 84.0388 14.7398 84.4077C15.1087 84.7767 15.6092 84.984 16.131 84.984Z" fill="url(#paint24_radial_308_265)"/>
<path opacity="0.4" d="M19.279 86.557C19.5373 86.557 19.7931 86.5061 20.0317 86.4073C20.2704 86.3084 20.4872 86.1635 20.6699 85.9809C20.8525 85.7982 20.9974 85.5814 21.0963 85.3427C21.1951 85.1041 21.246 84.8483 21.246 84.59C21.246 84.3317 21.1951 84.0759 21.0963 83.8373C20.9974 83.5986 20.8525 83.3818 20.6699 83.1991C20.4872 83.0165 20.2704 82.8716 20.0317 82.7727C19.7931 82.6739 19.5373 82.623 19.279 82.623C18.7573 82.623 18.257 82.8302 17.8881 83.1991C17.5192 83.568 17.312 84.0683 17.312 84.59C17.312 85.1117 17.5192 85.612 17.8881 85.9809C18.257 86.3498 18.7573 86.557 19.279 86.557Z" fill="url(#paint25_radial_308_265)"/>
<path opacity="0.4" d="M82.23 85.77C82.7517 85.77 83.252 85.5628 83.6209 85.1939C83.9898 84.825 84.197 84.3247 84.197 83.803C84.197 83.2813 83.9898 82.781 83.6209 82.4121C83.252 82.0432 82.7517 81.836 82.23 81.836C81.7083 81.836 81.208 82.0432 80.8391 82.4121C80.4702 82.781 80.263 83.2813 80.263 83.803C80.263 84.3247 80.4702 84.825 80.8391 85.1939C81.208 85.5628 81.7083 85.77 82.23 85.77Z" fill="url(#paint26_radial_308_265)"/>
<path opacity="0.4" d="M81.836 82.623C82.462 82.623 83.0624 82.3743 83.5051 81.9316C83.9478 81.4889 84.1965 80.8885 84.1965 80.2625C84.1965 79.6365 83.9478 79.0361 83.5051 78.5934C83.0624 78.1507 82.462 77.902 81.836 77.902C81.21 77.902 80.6096 78.1507 80.1669 78.5934C79.7242 79.0361 79.4755 79.6365 79.4755 80.2625C79.4755 80.8885 79.7242 81.4889 80.1669 81.9316C80.6096 82.3743 81.21 82.623 81.836 82.623Z" fill="url(#paint27_radial_308_265)"/>
<path opacity="0.4" d="M77.902 82.623C78.528 82.623 79.1284 82.3743 79.5711 81.9316C80.0138 81.4889 80.2625 80.8885 80.2625 80.2625C80.2625 79.6365 80.0138 79.0361 79.5711 78.5934C79.1284 78.1507 78.528 77.902 77.902 77.902C77.276 77.902 76.6756 78.1507 76.2329 78.5934C75.7902 79.0361 75.5415 79.6365 75.5415 80.2625C75.5415 80.8885 75.7902 81.4889 76.2329 81.9316C76.6756 82.3743 77.276 82.623 77.902 82.623Z" fill="url(#paint28_radial_308_265)"/>
<path opacity="0.4" d="M75.147 81.836C75.8774 81.836 76.5779 81.5458 77.0944 81.0294C77.6109 80.5129 77.901 79.8124 77.901 79.082C77.901 78.3516 77.6109 77.6511 77.0944 77.1346C76.5779 76.6182 75.8774 76.328 75.147 76.328C74.4166 76.328 73.7161 76.6182 73.1996 77.1346C72.6832 77.6511 72.393 78.3516 72.393 79.082C72.393 79.8124 72.6832 80.5129 73.1996 81.0294C73.7161 81.5458 74.4166 81.836 75.147 81.836Z" fill="url(#paint29_radial_308_265)"/>
<path opacity="0.4" d="M18.492 84.984C19.2225 84.984 19.9232 84.6938 20.4397 84.1772C20.9563 83.6607 21.2465 82.96 21.2465 82.2295C21.2465 81.499 20.9563 80.7983 20.4397 80.2818C19.9232 79.7652 19.2225 79.475 18.492 79.475C17.7615 79.475 17.0608 79.7652 16.5443 80.2818C16.0277 80.7983 15.7375 81.499 15.7375 82.2295C15.7375 82.96 16.0277 83.6607 16.5443 84.1772C17.0608 84.6938 17.7615 84.984 18.492 84.984Z" fill="url(#paint30_radial_308_265)"/>
<path fill-rule="evenodd" clip-rule="evenodd" d="M73.967 79.475C74.593 79.4753 75.1933 79.7241 75.6358 80.1669C76.0784 80.6096 76.327 81.21 76.327 81.836C76.7781 81.8358 77.224 81.9325 77.6345 82.1196C78.0449 82.3067 78.4104 82.5798 78.7061 82.9205C79.0018 83.2612 79.2208 83.6614 79.3483 84.0941C79.4758 84.5268 79.5089 84.9819 79.4452 85.4285C79.3815 85.8751 79.2225 86.3028 78.9791 86.6826C78.7357 87.0624 78.4136 87.3854 78.0344 87.6298C77.6553 87.8743 77.228 88.0344 76.7816 88.0993C76.3352 88.1642 75.88 88.1323 75.447 88.006C75.2836 88.5751 74.9122 89.0621 74.4065 89.3701C73.9008 89.6782 73.2978 89.7849 72.7171 89.6691C72.1364 89.5533 71.6204 89.2234 71.2716 88.7449C70.9228 88.2664 70.7666 87.6743 70.834 87.086C70.297 86.8348 69.8554 86.417 69.5747 85.8947C69.2941 85.3725 69.1894 84.7737 69.2762 84.1872C69.363 83.6007 69.6367 83.0579 70.0566 82.6393C70.4765 82.2208 71.0202 81.9489 71.607 81.864V81.836C71.607 81.2101 71.8556 80.6098 72.2982 80.1672C72.7408 79.7246 73.3411 79.475 73.967 79.475Z" fill="url(#paint31_radial_308_265)"/>
</g>
<defs>
<radialGradient id="paint0_radial_308_265" cx="0" cy="0" r="1" gradientUnits="userSpaceOnUse" gradientTransform="translate(48 86.604) rotate(-90) scale(8.70201 48.2567)">
<stop offset="0.286" stop-color="#7D2889"/>
<stop offset="0.724" stop-color="#FF66D9" stop-opacity="0.41"/>
<stop offset="1" stop-color="white" stop-opacity="0"/>
</radialGradient>
<radialGradient id="paint1_radial_308_265" cx="0" cy="0" r="1" gradientUnits="userSpaceOnUse" gradientTransform="translate(48 39.155) rotate(-90) scale(38.3681 48.2567)">
<stop stop-color="#FFCA45"/>
<stop offset="0.453" stop-color="#FF66D9" stop-opacity="0.36"/>
<stop offset="1" stop-color="white" stop-opacity="0"/>
</radialGradient>
<radialGradient id="paint2_radial_308_265" cx="0" cy="0" r="1" gradientUnits="userSpaceOnUse" gradientTransform="translate(46.82 79.476) rotate(180) scale(37.7705 37.7705)">
<stop offset="0.432" stop-color="#FF8B54"/>
<stop offset="0.76" stop-color="#FFBB8D"/>
<stop offset="1" stop-color="#F9DDD1"/>
</radialGradient>
<radialGradient id="paint3_radial_308_265" cx="0" cy="0" r="1" gradientUnits="userSpaceOnUse" gradientTransform="translate(47.607 27.934) rotate(-90) scale(10.623 28.257)">
<stop offset="0.302" stop-color="#F9DDD1"/>
<stop offset="0.674" stop-color="#FFBB8D"/>
<stop offset="1" stop-color="#FF8B54"/>
</radialGradient>
<radialGradient id="paint4_radial_308_265" cx="0" cy="0" r="1" gradientUnits="userSpaceOnUse" gradientTransform="translate(46.032 29.948) rotate(90) scale(7.03568)">
<stop offset="0.375" stop-color="#FFF4EB"/>
<stop offset="1" stop-color="#FFF3EB" stop-opacity="0"/>
</radialGradient>
<radialGradient id="paint5_radial_308_265" cx="0" cy="0" r="1" gradientUnits="userSpaceOnUse" gradientTransform="translate(43.672 27.448) rotate(90) scale(4.81389)">
<stop offset="0.375" stop-color="#FFF4EB"/>
<stop offset="1" stop-color="#FFF3EB" stop-opacity="0"/>
</radialGradient>
<radialGradient id="paint6_radial_308_265" cx="0" cy="0" r="1" gradientUnits="userSpaceOnUse" gradientTransform="translate(42.098 31.382) rotate(90) scale(4.81389)">
<stop offset="0.375" stop-color="#FFF4EB"/>
<stop offset="1" stop-color="#FFF3EB" stop-opacity="0"/>
</radialGradient>
<radialGradient id="paint7_radial_308_265" cx="0" cy="0" r="1" gradientUnits="userSpaceOnUse" gradientTransform="translate(27.147 33.743) rotate(90) scale(4.81389)">
<stop offset="0.375" stop-color="#FFF4EB"/>
<stop offset="1" stop-color="#FFF3EB" stop-opacity="0"/>
</radialGradient>
<radialGradient id="paint8_radial_308_265" cx="0" cy="0" r="1" gradientUnits="userSpaceOnUse" gradientTransform="translate(30.295 31.383) rotate(90) scale(4.81389)">
<stop offset="0.375" stop-color="#FFF4EB"/>
<stop offset="1" stop-color="#FFF3EB" stop-opacity="0"/>
</radialGradient>
<radialGradient id="paint9_radial_308_265" cx="0" cy="0" r="1" gradientUnits="userSpaceOnUse" gradientTransform="translate(30.295 35.179) rotate(90) scale(2.59209)">
<stop offset="0.375" stop-color="#FFF4EB"/>
<stop offset="1" stop-color="#FFF3EB" stop-opacity="0"/>
</radialGradient>
<radialGradient id="paint10_radial_308_265" cx="0" cy="0" r="1" gradientUnits="userSpaceOnUse" gradientTransform="translate(73.575 33.605) rotate(90) scale(2.59209 2.59209)">
<stop offset="0.375" stop-color="#FFF4EB"/>
<stop offset="1" stop-color="#FFF3EB" stop-opacity="0"/>
</radialGradient>
<radialGradient id="paint11_radial_308_265" cx="0" cy="0" r="1" gradientUnits="userSpaceOnUse" gradientTransform="translate(76.721 37.493) rotate(90) scale(1.85149 1.85149)">
<stop offset="0.375" stop-color="#FFF4EB"/>
<stop offset="1" stop-color="#FFF3EB" stop-opacity="0"/>
</radialGradient>
<radialGradient id="paint12_radial_308_265" cx="0" cy="0" r="1" gradientUnits="userSpaceOnUse" gradientTransform="translate(72.786 36.798) rotate(90) scale(3.33269)">
<stop offset="0.375" stop-color="#FFF4EB"/>
<stop offset="1" stop-color="#FFF3EB" stop-opacity="0"/>
</radialGradient>
<radialGradient id="paint13_radial_308_265" cx="0" cy="0" r="1" gradientUnits="userSpaceOnUse" gradientTransform="translate(58.622 21.802) rotate(90) scale(2.59209)">
<stop offset="0.375" stop-color="#FFF4EB"/>
<stop offset="1" stop-color="#FFF3EB" stop-opacity="0"/>
</radialGradient>
<radialGradient id="paint14_radial_308_265" cx="0" cy="0" r="1" gradientUnits="userSpaceOnUse" gradientTransform="translate(48.394 19.394) rotate(90) scale(1.8515)">
<stop offset="0.375" stop-color="#FFF4EB"/>
<stop offset="1" stop-color="#FFF3EB" stop-opacity="0"/>
</radialGradient>
<radialGradient id="paint15_radial_308_265" cx="0" cy="0" r="1" gradientUnits="userSpaceOnUse" gradientTransform="translate(35.016 21.756) rotate(90) scale(1.85149)">
<stop offset="0.375" stop-color="#FFF4EB"/>
<stop offset="1" stop-color="#FFF3EB" stop-opacity="0"/>
</radialGradient>
<radialGradient id="paint16_radial_308_265" cx="0" cy="0" r="1" gradientUnits="userSpaceOnUse" gradientTransform="translate(61.771 28.235) rotate(90) scale(4.81389 4.81389)">
<stop offset="0.375" stop-color="#FFF4EB"/>
<stop offset="1" stop-color="#FFF3EB" stop-opacity="0"/>
</radialGradient>
<radialGradient id="paint17_radial_308_265" cx="0" cy="0" r="1" gradientUnits="userSpaceOnUse" gradientTransform="translate(57.049 26.661) rotate(90) scale(4.81389)">
<stop offset="0.375" stop-color="#FFF4EB"/>
<stop offset="1" stop-color="#FFF3EB" stop-opacity="0"/>
</radialGradient>
<radialGradient id="paint18_radial_308_265" cx="0" cy="0" r="1" gradientUnits="userSpaceOnUse" gradientTransform="translate(59.41 29.022) rotate(90) scale(4.81389 4.81389)">
<stop offset="0.375" stop-color="#FFF4EB"/>
<stop offset="1" stop-color="#FFF3EB" stop-opacity="0"/>
</radialGradient>
<linearGradient id="paint19_linear_308_265" x1="59.803" y1="88.918" x2="33.764" y2="21.046" gradientUnits="userSpaceOnUse">
<stop stop-color="#E0B1CC"/>
<stop offset="0.431" stop-color="#FFF1F1"/>
<stop offset="1" stop-color="#FFC9A5"/>
</linearGradient>
<linearGradient id="paint20_linear_308_265" x1="59.803" y1="53.115" x2="83.41" y2="53.115" gradientUnits="userSpaceOnUse">
<stop stop-color="#D16AE9"/>
<stop offset="1" stop-color="#FF661D"/>
</linearGradient>
<linearGradient id="paint21_linear_308_265" x1="18.111" y1="36.984" x2="75.136" y2="85.621" gradientUnits="userSpaceOnUse">
<stop stop-color="#FF661D"/>
<stop offset="0.5" stop-color="#CE3A00"/>
<stop offset="1" stop-color="#A60A5E"/>
</linearGradient>
<radialGradient id="paint22_radial_308_265" cx="0" cy="0" r="1" gradientUnits="userSpaceOnUse" gradientTransform="translate(16.918 80.772) rotate(90) scale(1.8515)">
<stop offset="0.375" stop-color="#F9DDD1"/>
<stop offset="1" stop-color="#FFF3EB" stop-opacity="0"/>
</radialGradient>
<radialGradient id="paint23_radial_308_265" cx="0" cy="0" r="1" gradientUnits="userSpaceOnUse" gradientTransform="translate(13.771 83.133) rotate(90) scale(1.8515 1.8515)">
<stop offset="0.375" stop-color="#F9DDD1"/>
<stop offset="1" stop-color="#FFF3EB" stop-opacity="0"/>
</radialGradient>
<radialGradient id="paint24_radial_308_265" cx="0" cy="0" r="1" gradientUnits="userSpaceOnUse" gradientTransform="translate(16.132 83.132) rotate(90) scale(1.8515)">
<stop offset="0.375" stop-color="#F9DDD1"/>
<stop offset="1" stop-color="#FFF3EB" stop-opacity="0"/>
</radialGradient>
<radialGradient id="paint25_radial_308_265" cx="0" cy="0" r="1" gradientUnits="userSpaceOnUse" gradientTransform="translate(19.279 84.707) rotate(90) scale(1.85149)">
<stop offset="0.375" stop-color="#F9DDD1"/>
<stop offset="1" stop-color="#FFF3EB" stop-opacity="0"/>
</radialGradient>
<radialGradient id="paint26_radial_308_265" cx="0" cy="0" r="1" gradientUnits="userSpaceOnUse" gradientTransform="translate(82.23 83.92) rotate(90) scale(1.85149)">
<stop offset="0.375" stop-color="#F9DDD1"/>
<stop offset="1" stop-color="#FFF3EB" stop-opacity="0"/>
</radialGradient>
<radialGradient id="paint27_radial_308_265" cx="0" cy="0" r="1" gradientUnits="userSpaceOnUse" gradientTransform="translate(81.836 80.4) rotate(90) scale(2.2218)">
<stop offset="0.375" stop-color="#F9DDD1"/>
<stop offset="1" stop-color="#FFF3EB" stop-opacity="0"/>
</radialGradient>
<radialGradient id="paint28_radial_308_265" cx="0" cy="0" r="1" gradientUnits="userSpaceOnUse" gradientTransform="translate(77.901 80.401) rotate(90) scale(2.2218)">
<stop offset="0.375" stop-color="#F9DDD1"/>
<stop offset="1" stop-color="#FFF3EB" stop-opacity="0"/>
</radialGradient>
<radialGradient id="paint29_radial_308_265" cx="0" cy="0" r="1" gradientUnits="userSpaceOnUse" gradientTransform="translate(75.148 79.244) rotate(90) scale(2.5921 2.5921)">
<stop offset="0.375" stop-color="#F9DDD1"/>
<stop offset="1" stop-color="#FFF3EB" stop-opacity="0"/>
</radialGradient>
<radialGradient id="paint30_radial_308_265" cx="0" cy="0" r="1" gradientUnits="userSpaceOnUse" gradientTransform="translate(18.492 82.392) rotate(90) scale(2.5921 2.5921)">
<stop offset="0.375" stop-color="#F9DDD1"/>
<stop offset="1" stop-color="#FFF3EB" stop-opacity="0"/>
</radialGradient>
<radialGradient id="paint31_radial_308_265" cx="0" cy="0" r="1" gradientUnits="userSpaceOnUse" gradientTransform="translate(76.3281 84.5904) rotate(111.038) scale(5.48002)">
<stop stop-color="#FDF7F2"/>
<stop offset="1" stop-color="#FFD8BD"/>
</radialGradient>
<clipPath id="clip0_308_265">
<rect width="96" height="96" fill="white"/>
</clipPath>
</defs>
</svg>
